PathFileType	4	(X/Y/Z)	C:\Users\Basilio\Documents\Thesis Gigler\squatting_fais\c3dfiles\077\SJ_pre4\markers_experimental.trc
DataRate	CameraRate	NumFrames	NumMarkers	Units	OrigDataRate	OrigDataStartFrame	OrigNumFrames
200.000000	200.000000	4	60	mm	200.000000	1194	1365
Frame#	Time	FHD			LBHD			RBHD			C7			T10			CLAV			LSHO			LUUPA			LMUPA			LDUPA			LLEP			LMEP			LRAD			LUL			LRFIN			RSHO			RUPA1			RMUPA			RDUPA			RLEP			RMEP			RRAD			RUL			RUFIN			LASI			RASI			USACR			LSACR			RSACR			LTHI1			LTHI2			LTHI3			LTHI4			LLFC			LMFC			LTIB1			LTIB2			LTIB3			LTIB4			LLMAL			LHEE			LMT1			LMT2			LMT5			RTHI			RTHI2			RTHI3			RTHI4			RLFC			RMFC			RTIB1			RTIB2			RTIB3			RTIB4			RLMAL			RMMAL			RHEE			RMT1			RMT2			RMT5			
		X1	Y1	Z1	X2	Y2	Z2	X3	Y3	Z3	X4	Y4	Z4	X5	Y5	Z5	X6	Y6	Z6	X7	Y7	Z7	X8	Y8	Z8	X9	Y9	Z9	X10	Y10	Z10	X11	Y11	Z11	X12	Y12	Z12	X13	Y13	Z13	X14	Y14	Z14	X15	Y15	Z15	X16	Y16	Z16	X17	Y17	Z17	X18	Y18	Z18	X19	Y19	Z19	X20	Y20	Z20	X21	Y21	Z21	X22	Y22	Z22	X23	Y23	Z23	X24	Y24	Z24	X25	Y25	Z25	X26	Y26	Z26	X27	Y27	Z27	X28	Y28	Z28	X29	Y29	Z29	X30	Y30	Z30	X31	Y31	Z31	X32	Y32	Z32	X33	Y33	Z33	X34	Y34	Z34	X35	Y35	Z35	X36	Y36	Z36	X37	Y37	Z37	X38	Y38	Z38	X39	Y39	Z39	X40	Y40	Z40	X41	Y41	Z41	X42	Y42	Z42	X43	Y43	Z43	X44	Y44	Z44	X45	Y45	Z45	X46	Y46	Z46	X47	Y47	Z47	X48	Y48	Z48	X49	Y49	Z49	X50	Y50	Z50	X51	Y51	Z51	X52	Y52	Z52	X53	Y53	Z53	X54	Y54	Z54	X55	Y55	Z55	X56	Y56	Z56	X57	Y57	Z57	X58	Y58	Z58	X59	Y59	Z59	X60	Y60	Z60	

1195	5.97	-256.0125122070313	1825.064208984375	-934.5275878906252	-395.2623596191407	1717.69140625	-1007.589965820313	-406.8473510742189	1714.648681640625	-862.3541259765627	-463.3752441406251	1577.04736328125	-941.3142700195315	-474.3868713378907	1241.01318359375	-935.6519775390627	-296.6434936523438	1524.236938476563	-937.4793090820315	-357.8312988281251	1553.10595703125	-1130.258666992188	-394.3244934082032	1408.577026367188	-1295.305786132813	-357.0300292968751	1373.253540039063	-1297.291381835938	-400.1133728027345	1356.0419921875	-1338.454223632813	-390.994354248047	1293.582885742188	-1369.923828125	-468.0121154785157	1268.615356445313	-1337.129638671875	-356.5047302246094	1074.667236328125	-1158.996826171875	-311.3379821777344	1032.075317382813	-1210.765869140625	-308.8110351562501	1058.946411132813	-1102.0703125	-332.6150512695313	1555.702758789063	-745.8524169921876	-399.0601196289064	1421.318725585938	-571.2174072265626	-370.8789367675782	1380.095703125	-569.8787841796876	-412.4414062500001	1366.579956054688	-528.7028198242189	-413.530487060547	1301.511352539063	-500.2466430664064	-495.379608154297	1283.49267578125	-533.3529052734376	-392.4464721679689	1071.784057617188	-685.1528930664064	-332.8829040527344	1044.7158203125	-639.0880737304689	-334.9741516113282	1075.806274414063	-734.4390258789064	-276.4305114746094	1043.013305664063	-1064.310913085938	-289.1328735351563	1057.017700195313	-784.3837890625002	-485.998260498047	1133.311767578125	-928.9172973632815	-491.2343750000001	1102.865966796875	-956.971374511719	-495.5747070312501	1102.179565429688	-901.9614257812502	-387.2803955078126	841.0249023437502	-1141.804443359375	-372.6289978027344	758.3231201171876	-1149.517333984375	-324.7258300781251	752.0389404296876	-1144.33544921875	-409.0974121093751	709.6988525390626	-1138.82421875	-404.8999023437501	561.2609863281251	-1133.782836914063	-377.5307312011719	515.5627441406251	-1011.492248535156	-364.3008728027344	338.2341003417969	-1125.328857421875	-410.5255432128907	306.4684448242188	-1195.12744140625	-371.8313598632813	299.8178405761719	-1170.2568359375	-366.9006958007813	214.6248626708985	-1157.408081054688	-431.475067138672	101.3468322753907	-1208.696411132813	-466.8706359863282	46.10891723632813	-1154.037231445313	-252.3098754882813	60.20504760742189	-1194.313598632813	-263.8143920898438	60.9930763244629	-1235.457275390625	-380.3391113281251	102.2393264770508	-1134.546142578125	-428.6958923339845	735.7044677734376	-710.1946411132814	-398.8746337890626	676.5669555664064	-696.5230712890626	-365.0560607910157	674.2069091796876	-694.9420166015626	-432.579315185547	603.9435424804689	-711.3425292968751	-434.3528442382814	534.7919921875001	-704.6914062500001	-374.0080261230469	501.1226806640626	-817.290710449219	-372.6664733886719	407.8241577148439	-684.4200439453126	-433.7493896484376	327.3241882324219	-651.6895751953126	-387.0020751953126	325.1207580566407	-659.8012084960939	-367.0112915039063	276.3630065917969	-687.0106201171876	-422.0108337402345	97.03103637695315	-631.0057373046876	-372.2019653320313	96.60861968994143	-709.7419433593751	-460.5603637695314	44.38876342773438	-693.2409057617189	-246.0043945312501	60.67887496948244	-619.2139282226564	-260.3871154785157	62.24420166015626	-584.3344116210939	-287.8713684082032	42.3935775756836	-541.1838989257814	
1196	5.975000000000001	-256.1080322265626	1825.2021484375	-934.581726074219	-395.2575683593751	1718.040893554688	-1007.591369628906	-406.8963623046876	1714.71875	-862.401062011719	-463.161834716797	1577.0068359375	-941.3308105468752	-474.1420898437501	1241.162841796875	-935.4734497070315	-296.4052734375001	1524.214599609375	-937.433532714844	-357.7174377441407	1553.0185546875	-1130.275146484375	-394.1540527343751	1408.455322265625	-1295.258178710938	-357.0273132324219	1373.152954101563	-1297.273559570313	-399.8565979003907	1355.853515625	-1338.391967773438	-390.834442138672	1293.482666015625	-1369.844604492188	-467.777313232422	1268.436645507813	-1337.0439453125	-356.2904052734376	1074.486572265625	-1158.954711914063	-310.9937438964844	1031.9150390625	-1210.636108398438	-308.5128173828126	1058.8486328125	-1101.942626953125	-332.5197448730469	1555.701904296875	-745.8699951171876	-398.9386291503907	1421.34912109375	-571.2294921875001	-370.7241516113282	1380.116821289063	-569.8385620117189	-412.3138122558595	1366.628540039063	-528.6689453125001	-413.3518066406251	1301.576416015625	-500.1748352050782	-495.2046813964845	1283.480224609375	-533.2811279296876	-392.2075500488282	1071.684448242188	-685.0609130859376	-332.6096496582032	1044.748168945313	-639.0239257812501	-334.7687988281251	1075.769775390625	-734.3811645507814	-276.3305664062501	1042.958740234375	-1064.230102539063	-288.9603271484376	1056.98291015625	-784.2942504882815	-485.7634277343751	1133.286010742188	-928.8150024414065	-491.0770263671876	1102.837524414063	-956.8244628906252	-495.3345947265626	1102.251586914063	-901.889343261719	-387.0054321289064	841.0452270507815	-1141.678100585938	-372.4598083496094	758.2913208007814	-1149.4638671875	-324.6397705078126	752.0242919921876	-1144.369384765625	-409.0148315429689	709.7514648437501	-1138.742309570313	-404.7460937500001	561.2087402343751	-1133.755126953125	-377.4210205078126	515.5092163085939	-1011.393310546875	-364.1472778320313	338.2160339355469	-1125.300903320313	-410.5613403320314	306.4094848632813	-1195.08642578125	-371.7549743652344	299.8192443847657	-1170.267211914063	-366.8465270996094	214.609115600586	-1157.4384765625	-431.3856811523439	101.3055801391602	-1208.717407226563	-466.8645324707032	46.08833694458009	-1154.064331054688	-252.4312744140626	60.27022933959962	-1194.32470703125	-263.9908142089844	61.00160217285158	-1235.556518554688	-380.3197326660157	102.2202224731446	-1134.50341796875	-428.7429809570314	735.7266845703126	-710.2260131835939	-398.9359741210939	676.5794677734376	-696.4729003906251	-365.1159362792969	674.2125854492189	-694.9005737304689	-432.6351013183595	603.9379882812501	-711.3928833007814	-434.3737792968751	534.7801513671876	-704.6896972656251	-374.8268432617188	501.2232666015626	-817.6633300781252	-372.6998596191407	407.7576293945314	-684.3570556640626	-433.7325744628907	327.3627624511719	-651.6940307617189	-386.9928588867189	325.1494750976563	-659.8178100585939	-366.9857482910157	276.3872985839844	-686.9459838867189	-422.0104064941407	97.02796936035159	-631.0177001953126	-372.2023925781251	96.55403137207034	-709.7515258789064	-460.5137634277345	44.4304542541504	-693.2638549804689	-245.8950653076172	60.90042877197267	-619.1908569335939	-260.3775939941407	62.27487564086915	-584.3106079101564	-287.8742980957032	42.40286254882813	-541.1763305664064	
1197	5.98	-255.9416046142579	1825.068359375	-934.4507446289065	-395.1265563964845	1718.0322265625	-1007.641845703125	-406.8990478515626	1714.718627929688	-862.450622558594	-463.0142211914064	1576.932006835938	-941.3687133789065	-473.9641723632814	1241.10986328125	-935.3821411132815	-296.1195678710938	1524.156860351563	-937.3582153320315	-357.5359802246094	1552.8837890625	-1130.272705078125	-394.0162048339845	1408.34765625	-1295.134887695313	-356.5639038085938	1372.85693359375	-1297.24755859375	-399.7502441406251	1355.683349609375	-1338.312866210938	-390.7237243652345	1293.39306640625	-1369.814697265625	-467.6058349609376	1268.298217773438	-1336.916137695313	-356.1148071289063	1074.373168945313	-1158.919067382813	-310.7587280273438	1031.855346679688	-1210.615844726563	-308.2988891601563	1058.743530273438	-1101.861572265625	-332.3792114257813	1555.750854492188	-745.8802490234376	-398.8275451660157	1421.389526367188	-571.2285766601564	-370.6008911132813	1380.1865234375	-569.7934570312501	-412.1737365722657	1366.630981445313	-528.6723632812501	-413.1344299316407	1301.577758789063	-500.1588134765626	-494.9234008789064	1283.547241210938	-533.2243041992189	-391.8706665039064	1071.692260742188	-685.0160522460939	-332.3693237304688	1044.751953125	-638.9371337890626	-334.6004028320313	1075.697875976563	-734.3817749023439	-276.2314758300782	1042.835205078125	-1064.220947265625	-288.6895751953126	1056.912475585938	-784.237976074219	-485.5733947753907	1133.276977539063	-928.783142089844	-490.7843017578126	1102.713012695313	-956.7727661132815	-495.1477355957032	1102.310913085938	-901.8293457031252	-386.9111328125001	841.0655517578127	-1141.570678710938	-372.3249816894532	758.2952270507814	-1149.401733398438	-324.6001281738282	751.9800415039064	-1144.338134765625	-408.847137451172	709.7288818359376	-1138.632446289063	-404.640350341797	561.2145996093751	-1133.66796875	-377.2686157226563	515.5185546875001	-1011.342895507813	-364.1373596191407	338.1565856933594	-1125.3134765625	-410.4609680175782	306.3877258300782	-1195.100341796875	-371.7232971191407	299.8026123046876	-1170.248657226563	-366.8225402832032	214.6278076171876	-1157.427368164063	-431.445037841797	101.3621368408203	-1208.679321289063	-466.8684387207032	46.09383010864259	-1154.065063476563	-252.3535766601563	60.2473487854004	-1194.305297851563	-263.8347167968751	60.98926162719728	-1235.494995117188	-380.2945251464844	102.228385925293	-1134.470458984375	-428.779266357422	735.6675415039064	-710.2723388671876	-398.9771423339845	676.5864257812501	-696.4585571289064	-365.1925354003907	674.1599731445314	-694.8314208984376	-432.7036437988282	603.9604492187501	-711.4550781250001	-434.3922424316407	534.7905883789064	-704.7556152343751	-373.8434448242188	501.1490478515626	-817.3059692382815	-372.6865234375001	407.7883605957032	-684.3598022460939	-433.7615966796876	327.3589782714844	-651.7272338867189	-387.0154418945314	325.1530151367188	-659.8317871093751	-366.9970703125001	276.3743591308594	-686.9652709960939	-422.0386047363282	97.0935974121094	-631.0423583984376	-371.4292602539063	96.28298187255862	-709.4454345703126	-460.5374145507814	44.42982864379884	-693.2896728515626	-246.0106811523438	60.67187500000001	-619.2551269531251	-260.3783569335938	62.30999755859376	-584.2879638671876	-287.8824768066407	42.37374114990235	-541.1550292968751	
1198	5.985	-255.8561706542969	1824.971313476563	-934.4040527343752	-394.9915771484376	1717.859741210938	-1007.6669921875	-406.9027404785157	1714.741088867188	-862.4433593750002	-462.8271484375001	1576.924560546875	-941.3708496093752	-473.7925720214845	1241.136474609375	-935.263122558594	-296.0029296875001	1524.186645507813	-937.4024658203127	-357.4547729492188	1552.748657226563	-1130.343017578125	-393.7244873046876	1408.192504882813	-1295.019165039063	-356.3424987792969	1372.620727539063	-1297.173095703125	-399.832244873047	1355.604125976563	-1338.248168945313	-390.576141357422	1293.250122070313	-1369.729370117188	-467.4207763671876	1268.147338867188	-1336.833618164063	-355.9292907714844	1074.171997070313	-1158.80810546875	-310.5566711425782	1031.757934570313	-1210.555419921875	-308.1334838867188	1058.553588867188	-1101.78173828125	-332.2277221679688	1555.803344726563	-745.8672485351564	-398.6705932617189	1421.41064453125	-571.2314453125001	-370.3613586425782	1380.29833984375	-569.7278442382814	-412.040740966797	1366.696655273438	-528.6624755859376	-412.994110107422	1301.622192382813	-500.1397399902345	-494.7195434570314	1283.510620117188	-533.1828002929689	-391.4675292968751	1071.831787109375	-684.9454345703126	-332.1723632812501	1044.717895507813	-638.8132324218751	-334.4424438476563	1075.6943359375	-734.3491210937501	-276.0712890625001	1042.729370117188	-1064.0439453125	-288.5678710937501	1056.86962890625	-784.1597900390627	-485.3727111816407	1133.11181640625	-928.7087402343752	-490.6114501953126	1102.735595703125	-956.7181396484377	-495.0884094238282	1102.245727539063	-901.7422485351565	-386.747528076172	841.1254882812502	-1141.436401367188	-372.2456970214844	758.2176513671876	-1149.3408203125	-324.4067077636719	751.9631958007814	-1144.356811523438	-408.7442016601564	709.7263183593751	-1138.572265625	-404.4299926757814	561.1613769531251	-1133.607666015625	-377.1394958496094	515.4562377929689	-1011.343688964844	-364.0739440917969	338.2151489257813	-1125.278076171875	-410.5083923339845	306.4026184082032	-1195.023315429688	-371.7067565917969	299.7786865234376	-1170.218627929688	-366.7995300292969	214.6076049804688	-1157.423217773438	-431.4096069335939	101.3234939575196	-1208.719116210938	-466.8794555664064	46.07101058959962	-1154.031860351563	-252.4012756347657	60.2190284729004	-1194.333129882813	-263.9927978515626	60.99950790405275	-1235.569213867188	-380.3356018066407	102.20166015625	-1134.482543945313	-428.8273925781251	735.7037353515626	-710.3258666992189	-399.0803222656251	676.6324462890626	-696.5686035156251	-365.2613525390626	674.1804809570314	-694.7514038085939	-432.7557373046876	603.9722900390626	-711.4819946289064	-434.4307250976564	534.7750854492189	-704.7603149414064	-373.8668212890626	501.1968383789064	-817.2337036132815	-372.7500610351563	407.7515563964845	-684.3812255859376	-433.8076782226564	327.3578491210938	-651.7187500000001	-387.0695800781251	325.1564331054688	-659.8175659179689	-367.0068969726563	276.4023132324219	-686.9838256835939	-422.0684814453126	97.04143524169925	-631.0557861328126	-372.1824951171876	96.52740478515628	-709.7299194335939	-460.5321655273439	44.44075012207032	-693.2601928710939	-245.9427947998047	60.87400817871095	-619.2153930664064	-260.3556213378907	62.30889129638673	-584.2837524414064	-287.8662414550782	42.38394927978516	-541.1416015625001	
